<?xml version="1.0" standalone="no"?>
<!DOCTYPE svg PUBLIC "-//W3C//DTD SVG 20010904//EN"
 "http://www.w3.org/TR/2001/REC-SVG-20010904/DTD/svg10.dtd">
<svg version="1.0" xmlns="http://www.w3.org/2000/svg"
 width="1024.000000pt" height="1024.000000pt" viewBox="0 0 1024.000000 1024.000000"
 preserveAspectRatio="xMidYMid meet">

<g transform="translate(0.000000,1024.000000) scale(0.100000,-0.100000)"
fill="#000000" stroke="none">
<path d="M4925 6454 c-629 -66 -1271 -371 -1890 -900 -138 -117 -445 -417
-445 -434 0 -17 276 -290 410 -406 320 -277 627 -482 963 -644 255 -123 449
-191 687 -241 429 -91 873 -55 1315 106 436 159 887 437 1305 805 124 109 380
365 380 381 0 17 -284 296 -425 418 -563 486 -1154 789 -1742 892 -114 20
-452 34 -558 23z m427 -303 c223 -50 428 -175 575 -350 356 -423 330 -1033
-60 -1425 -438 -440 -1148 -413 -1551 60 -203 239 -296 576 -237 865 53 262
168 462 357 623 160 136 337 213 579 250 60 9 252 -4 337 -23z"/>
<path d="M5010 5819 c-214 -31 -420 -181 -520 -379 -55 -109 -74 -193 -74
-325 0 -108 3 -129 32 -213 76 -222 232 -378 454 -454 83 -28 105 -32 213 -32
133 -1 215 18 329 76 298 150 450 502 356 828 -18 62 -21 63 -83 35 -166 -76
-338 -40 -461 97 -60 65 -88 142 -90 238 0 41 3 90 7 108 l9 32 -59 -1 c-32
-1 -83 -5 -113 -10z"/>
</g>
</svg>